<?xml version="1.0" encoding="utf-8"?>
<!-- Generator: Adobe Illustrator 15.0.2, SVG Export Plug-In . SVG Version: 6.00 Build 0)  -->
<!DOCTYPE svg PUBLIC "-//W3C//DTD SVG 1.1//EN" "http://www.w3.org/Graphics/SVG/1.1/DTD/svg11.dtd">
<svg version="1.1" id="Слой_1" xmlns="http://www.w3.org/2000/svg" xmlns:xlink="http://www.w3.org/1999/xlink" x="0px" y="0px"
	 width="96px" height="96px" viewBox="0 0 96 96" enable-background="new 0 0 96 96" xml:space="preserve">
<rect fill="none" width="96" height="96"/>
<g>
	
		<linearGradient id="SVGID_1_" gradientUnits="userSpaceOnUse" x1="3387.8301" y1="-4789.7798" x2="3387.8301" y2="-4721.4263" gradientTransform="matrix(1 0 0 -1 -3339.7949 -4709.7051)">
		<stop  offset="0" style="stop-color:#960021"/>
		<stop  offset="1" style="stop-color:#E60014"/>
	</linearGradient>
	<path fill="url(#SVGID_1_)" d="M88,47.997c0,29.633-10.352,39.998-39.964,39.998S8.069,77.63,8.069,47.997
		C8.07,18.363,18.426,8,48.037,8S88,18.363,88,47.997z"/>
</g>
<linearGradient id="SVGID_2_" gradientUnits="userSpaceOnUse" x1="3120.1641" y1="4503.5557" x2="3120.1641" y2="4424.3193" gradientTransform="matrix(1 0 0 1 -3072.1953 -4415.8047)">
	<stop  offset="0" style="stop-color:#000000;stop-opacity:0.4"/>
	<stop  offset="1" style="stop-color:#FFFFFF"/>
</linearGradient>
<path opacity="0.4" fill="url(#SVGID_2_)" enable-background="new    " d="M47.965,8.008C18.355,8.008,8,18.371,8,48.003
	C8,77.639,18.354,88,47.965,88c29.611,0,39.971-10.363,39.971-39.997C87.936,18.371,77.576,8.008,47.965,8.008z M47.965,87.005
	c-29.133,0-38.966-9.845-38.966-39.006c0-29.157,9.833-38.996,38.966-38.996c29.129,0,38.967,9.84,38.967,38.997
	C86.932,77.16,77.092,87.005,47.965,87.005z"/>
<g>
	<path opacity="0.1" enable-background="new    " d="M76.002,73.255L71.3,71.732c-1.772,0.197-7.56,1.398-9.698,1.582l14.4,7.168
		V73.255z"/>
	<path opacity="0.18" enable-background="new    " d="M75.502,73.755L71.3,72.232c-1.772,0.197-6.31,0.898-8.448,1.082l12.65,6.168
		V73.755z"/>
	<path opacity="0.25" enable-background="new    " d="M75.002,74.255L71.3,72.732c-1.772,0.197-4.56,0.648-6.698,0.832l10.4,4.918
		V74.255L75.002,74.255z"/>
	
		<linearGradient id="SVGID_3_" gradientUnits="userSpaceOnUse" x1="308.2061" y1="-369.3828" x2="342.4814" y2="-369.3828" gradientTransform="matrix(1 0 0 -1 -267.5996 -293.9004)">
		<stop  offset="0" style="stop-color:#CCCCCC"/>
		<stop  offset="0.5879" style="stop-color:#D9D9D9"/>
		<stop  offset="0.9091" style="stop-color:#F8F8F8"/>
		<stop  offset="1" style="stop-color:#F8F8F8"/>
	</linearGradient>
	<path fill="url(#SVGID_3_)" d="M74.503,74.707L71.566,73.5c-1.405,0.156-3.021,0.316-4.717,0.462l7.652,3.503L74.503,74.707
		L74.503,74.707z"/>
	<g>
		<polygon opacity="0.1" enable-background="new    " points="17.022,50.553 17.022,52.762 29.235,61.854 29.235,58.589 		"/>
		<polygon opacity="0.18" enable-background="new    " points="17.272,51.053 17.272,52.762 29.235,61.354 29.235,58.839 		"/>
		<polygon opacity="0.25" enable-background="new    " points="17.522,51.553 17.522,52.512 28.735,60.604 28.735,58.839 		"/>
		
			<linearGradient id="SVGID_4_" gradientUnits="userSpaceOnUse" x1="285.3721" y1="-349.9785" x2="321.0912" y2="-349.9785" gradientTransform="matrix(1 0 0 -1 -267.5996 -293.9004)">
			<stop  offset="0" style="stop-color:#CCCCCC"/>
			<stop  offset="0.5879" style="stop-color:#D9D9D9"/>
			<stop  offset="0.9091" style="stop-color:#F8F8F8"/>
			<stop  offset="1" style="stop-color:#F8F8F8"/>
		</linearGradient>
		<polygon fill="url(#SVGID_4_)" points="17.772,52.053 17.772,52.262 28.485,60.104 28.485,59.089 		"/>
		<path opacity="0.1" enable-background="new    " d="M52.313,73.247c-1.008,0-1.277,0.217-1.715,0.149
			c-1.304-0.205-0.924-1.033-1.104-2.237L32.513,60.473V64.9L61.68,86.303v-7.389L52.313,73.247z"/>
		<path opacity="0.18" enable-background="new    " d="M52.313,73.747c-1.008,0-1.777-0.033-2.215-0.101
			c-1.304-0.205-0.924-1.033-1.104-2.237l-15.731-9.938v3.43L61.18,85.303v-6.139L52.313,73.747z"/>
		<path opacity="0.25" enable-background="new    " d="M52.313,74.247c-1.008,0-1.777-0.033-2.215-0.101
			c-1.304-0.205-1.424-1.283-1.604-2.487l-14.731-9.438v2.43L60.68,84.303v-4.889L52.313,74.247z"/>
		
			<linearGradient id="SVGID_5_" gradientUnits="userSpaceOnUse" x1="282.5205" y1="-366.9121" x2="327.4365" y2="-366.9121" gradientTransform="matrix(1 0 0 -1 -267.5996 -293.9004)">
			<stop  offset="0" style="stop-color:#CCCCCC"/>
			<stop  offset="0.5879" style="stop-color:#D9D9D9"/>
			<stop  offset="0.9091" style="stop-color:#F8F8F8"/>
			<stop  offset="1" style="stop-color:#F8F8F8"/>
		</linearGradient>
		<path fill="url(#SVGID_5_)" d="M52.313,74.747c-1.008,0-1.777-0.033-2.215-0.101c-1.304-0.205-1.924-1.533-2.104-2.737
			l-13.981-9.188v1.43L60.18,83.303v-3.389L52.313,74.747z"/>
	</g>
	<g opacity="0.1">
		<path d="M87.59,48.652l-4.852-19.971c0,0-0.676-3.297-5.33-4.944c-4.651-1.648-16.188-6.109-33.348-2.813
			c0,0-1.162,0.25-2.131,1.137l-0.003-0.021l-7.482,6.494v-0.013h-2.357l-2.545,2.292v2.048L16.535,45.027v6.179l11.189,5.519v5.615
			l6.444,4.59v-7.002l5.074,2.069c0.399,2.506,1.888,5.837,5.73,6.479c2,0.377,2.689,1.463,2.689,3.272
			c-0.164,1.937,1.967,3.897,3.547,4.146c2.836,0.441,20.287-0.76,24.358-1.674c3.563-0.802,3.271-1.961,3.49-3.707
			c0.217-1.746,1.02-2.66,2.981-4.406c1.452-1.291,1.97-3.469,2.159-4.66c0.484-0.157,1.281-0.557,1.549-1.551l1.843-7.465
			C87.59,52.434,87.973,50.88,87.59,48.652z M39.444,40.864l-0.605,0.087v-6.686l1.206-0.723l0.702,5.659
			C40.862,40.323,40.414,40.566,39.444,40.864z M53.716,51.863h-3.194c-0.604,0-1.099-0.413-1.099-1.02
			c0-0.604,0.493-1.017,1.099-1.017h3.194c0.604,0,1.099,0.413,1.099,1.017C54.814,51.45,54.318,51.863,53.716,51.863z
			 M61.409,39.789l-10.468-0.198c-1.842-0.006-2.019-1.935-2.019-1.935l-1.131-8.665c-0.204-1.753,1.497-1.845,1.497-1.845
			l7.264-0.605c0.858-0.033,1.178,0.286,1.178,0.286l2.545,2.323c0.605,0.573,0.729,1.497,0.729,1.497l1.533,7.869
			C62.729,39.757,61.409,39.789,61.409,39.789z M64.572,25.624l-0.42,0.492c-0.266,0.277-0.551,0-0.551,0l-0.814-0.754
			c-0.492-0.523-0.023-0.523-0.023-0.523l1.608,0.154C64.924,25.116,64.572,25.624,64.572,25.624z M70.384,40.138
			c-1.674,0-1.987-1.708-1.987-1.708L67,30.864c-0.188-1.021,0.421-1.535,0.421-1.535l1.638-1.778c0.521-0.521,1.709,0,1.709,0
			l6.031,2.094c1.324,0.453,1.291,1.395,1.291,1.395l1.813,7.675c0.418,1.783-0.871,1.599-0.871,1.599L70.384,40.138z M82.482,51.57
			h-1.526c-0.587,0-1.065-0.43-1.065-1.018c0-0.586,0.479-1.02,1.065-1.02h1.526c0.584,0,1.064,0.434,1.064,1.02
			C83.548,51.141,83.066,51.57,82.482,51.57z"/>
	</g>
	<g opacity="0.18">
		<path d="M86.957,48.637l-4.766-19.615c0,0-0.664-3.238-5.234-4.855c-4.568-1.619-15.898-6-32.752-2.762
			c0,0-1.141,0.246-2.093,1.117L42.109,22.5l-7.349,6.378v-0.013h-2.315l-2.5,2.251v2.012L17.171,45.075v6.069l10.989,5.42v5.515
			l2.584,1.758V39.112l0.487-0.335v25.452l2.496,1.664v-6.881l5.991,2.485c0.41,2.571,1.664,5.616,6.11,6.358
			c0,0,2.641,0.5,2.641,3.215c-0.161,1.9,1.204,3.834,2.755,4.078c2.785,0.433,19.926-0.748,23.924-1.646
			c3.498-0.787,3.213-1.927,3.43-3.642c0.212-1.715,1-2.612,2.928-4.326c1.428-1.27,1.936-3.162,2.121-4.333
			c0.477-0.154,1.258-0.548,1.521-1.521l1.811-7.332C86.957,52.35,87.333,50.824,86.957,48.637z M39.917,41.232l-1.577,0.331v-7.549
			l2.167-1.201l0.689,6.786C41.31,40.701,40.869,40.939,39.917,41.232z M53.688,51.791H50.55c-0.594,0-1.077-0.407-1.077-1.002
			c0-0.594,0.483-0.998,1.077-0.998h3.138c0.594,0,1.08,0.404,1.08,0.998C54.768,51.384,54.279,51.791,53.688,51.791z
			 M62.059,40.552l-11.395-0.221c-2.057-0.007-2.252-2.158-2.252-2.158l-1.262-9.386c-0.228-1.955,1.668-2.058,1.668-2.058
			l7.822-0.675c0.959-0.036,1.314,0.319,1.314,0.319l2.839,2.591c0.675,0.639,0.813,1.669,0.813,1.669l1.709,8.498
			C63.529,40.516,62.059,40.552,62.059,40.552z M64.904,25.614l-0.6,0.703c-0.38,0.396-0.785,0-0.785,0l-1.164-1.077
			c-0.705-0.747-0.037-0.747-0.037-0.747l2.302,0.22C65.408,24.889,64.904,25.614,64.904,25.614z M70.256,40.873
			c-1.803,0-2.141-1.84-2.141-1.84l-1.504-8.148c-0.201-1.1,0.453-1.653,0.453-1.653l1.764-1.916c0.563-0.562,1.84,0,1.84,0
			l6.496,2.255c1.426,0.487,1.391,1.501,1.391,1.501l1.952,8.266c0.449,1.92-0.938,1.722-0.938,1.722L70.256,40.873z M81.939,51.502
			h-1.498c-0.576,0-1.047-0.422-1.047-0.999c0-0.575,0.471-1.001,1.047-1.001h1.498c0.574,0,1.047,0.426,1.047,1.001
			C82.986,51.08,82.516,51.502,81.939,51.502z"/>
	</g>
	<polygon opacity="0.25" enable-background="new    " points="17.522,51.063 20.611,52.531 20.611,42.354 17.522,45.14 	"/>
	<g opacity="0.25">
		<path d="M86.109,48.615L81.46,29.474c0,0-0.647-3.159-5.108-4.738c-4.459-1.58-15.516-5.854-31.96-2.695
			c0,0-1.113,0.24-2.042,1.09l-0.002-0.021l-7.171,6.224v-0.013h-2.259l-2.439,2.197v1.963l-9.686,8.707v10.425l7.944,3.738v5.381
			l1.546,0.983V38.833l1.451-1.06V63.83l1.685,1.078v-6.471l6.597,2.728c0.399,2.509,2.111,5.726,6.45,6.448
			c0,0,2.578,0.488,2.578,3.138c-0.156,1.854,0.688,3.496,2.201,3.735c2.718,0.422,19.443-0.729,23.345-1.605
			c3.414-0.768,3.136-1.88,3.347-3.553c0.207-1.674,0.977-2.551,2.856-4.223c1.394-1.237,1.888-3.086,2.069-4.229
			c0.464-0.15,1.229-0.531,1.484-1.482l1.766-7.156C86.109,52.238,86.477,50.75,86.109,48.615z M40.135,41.676l-1.913,0.366v-8.328
			l2.629-1.601l0.836,7.762C41.825,41.09,41.29,41.354,40.135,41.676z M53.762,51.967h-3.298c-0.741,0-1.348-0.508-1.348-1.252
			c0-0.74,0.606-1.248,1.348-1.248h3.298c0.742,0,1.35,0.508,1.35,1.248C55.111,51.459,54.504,51.967,53.762,51.967z M62.473,41.218
			l-12.156-0.246c-2.295-0.008-2.514-2.409-2.514-2.409l-1.129-9.916c-0.254-2.182,1.863-2.296,1.863-2.296l8.171-0.753
			c1.07-0.04,1.468,0.356,1.468,0.356l3.169,2.892c0.752,0.713,0.905,1.862,0.905,1.862l1.63,8.926
			C64.113,41.179,62.473,41.218,62.473,41.218z M65.301,25.702l-0.792,0.929c-0.499,0.522-1.036,0-1.036,0l-1.535-1.422
			c-0.931-0.986-0.049-0.986-0.049-0.986l3.036,0.29C65.967,24.746,65.301,25.702,65.301,25.702z M70.23,41.434
			c-1.928,0-2.289-1.968-2.289-1.968l-1.607-8.716c-0.216-1.176,0.484-1.768,0.484-1.768l1.886-2.049c0.603-0.601,1.969,0,1.969,0
			l6.948,2.412c1.525,0.521,1.486,1.606,1.486,1.606l2.09,8.842c0.48,2.054-1.006,1.843-1.006,1.843L70.23,41.434z M82.113,51.637
			h-1.799c-0.689,0-1.254-0.509-1.254-1.199s0.563-1.201,1.254-1.201h1.799c0.689,0,1.255,0.511,1.255,1.201
			S82.803,51.637,82.113,51.637z"/>
	</g>
	
		<linearGradient id="SVGID_6_" gradientUnits="userSpaceOnUse" x1="329.0215" y1="-367.8408" x2="329.0215" y2="-315.1987" gradientTransform="matrix(1 0 0 -1 -267.5996 -293.9004)">
		<stop  offset="0" style="stop-color:#CCCCCC"/>
		<stop  offset="0.1818" style="stop-color:#D9D9D9"/>
		<stop  offset="0.8606" style="stop-color:#F8F8F8"/>
		<stop  offset="1" style="stop-color:#F8F8F8"/>
	</linearGradient>
	<path fill="url(#SVGID_6_)" d="M40.331,59.678c-0.055,2.494,1.382,6.801,6.454,7.646c0,0,2.541,0.48,2.541,3.092
		c-0.102,1.18,0.377,3.189,1.923,3.436c2.679,0.416,19.161-0.72,23.006-1.582c3.365-0.758,3.091-1.854,3.298-3.502
		c0.204-1.648,0.963-2.267,2.815-3.914c2.051-1.824,2.132-4.998,2.146-5.176H40.331z"/>
	<path opacity="0.1" enable-background="new    " d="M46.785,67.324c0,0,2.541,0.48,2.541,3.092c-0.016,0.186-0.016,0.395,0,0.611
		c4.72-4.479,18.979-16.055,28.316-2.77c0.297-1.289,1.072-1.939,2.726-3.406c2.051-1.822,2.132-4.998,2.146-5.174H44.625
		l-0.411,6.791C44.944,66.859,45.794,67.159,46.785,67.324z"/>
	
		<linearGradient id="SVGID_7_" gradientUnits="userSpaceOnUse" x1="280.3486" y1="-342.5391" x2="318.349" y2="-336.976" gradientTransform="matrix(1 0 0 -1 -267.5996 -293.9004)">
		<stop  offset="0" style="stop-color:#CCCCCC"/>
		<stop  offset="0.1758" style="stop-color:#CECECE"/>
		<stop  offset="0.4" style="stop-color:#D9D9D9"/>
		<stop  offset="1" style="stop-color:#F8F8F8"/>
	</linearGradient>
	<polygon fill="url(#SVGID_7_)" points="17.772,45.176 17.772,51.014 20.324,52.137 20.324,42.922 	"/>
	
		<linearGradient id="SVGID_8_" gradientUnits="userSpaceOnUse" x1="281.7549" y1="-341.3008" x2="312.6033" y2="-336.7847" gradientTransform="matrix(1 0 0 -1 -267.5996 -293.9004)">
		<stop  offset="0" style="stop-color:#CCCCCC"/>
		<stop  offset="0.1758" style="stop-color:#CECECE"/>
		<stop  offset="0.4" style="stop-color:#D9D9D9"/>
		<stop  offset="1" style="stop-color:#F8F8F8"/>
	</linearGradient>
	<path fill="url(#SVGID_8_)" d="M42.483,23.465l-7.067,6.134v-0.013h-2.227l-2.404,2.165v1.935l-9.545,8.427v1.303l20.302-14.941
		l0.068,0.393L21.239,43.509v9.031l7.829,3.438v5.303l1.031,0.723V38.468l1.923-1.291V63.35l1.167,0.815v-6.376l10.758,4.727
		l1.236,0.131l-0.23-18.258L42.483,23.465z M31.747,34.324l-0.619,0.449v-2.815l0.619-0.567V34.324z M33.189,33.276l-0.686,0.5
		v-3.078l0.686-0.63V33.276z M33.727,32.886V31.09l0.679-0.601l0.006,1.898L33.727,32.886z M22.064,48.022l-0.343,0.028v-3.47
		l0.343-0.188V48.022z M22.682,47.974l-0.343,0.027v-3.758l0.343-0.187V47.974z M23.334,47.922l-0.378,0.029v-4.043l0.378-0.206
		V47.922z M24.124,47.858l-0.55,0.043v-4.33l0.55-0.299V47.858z M25.121,47.778l-0.687,0.056v-4.73l0.687-0.373V47.778z
		 M26.287,47.685l-0.79,0.063v-5.223l0.79-0.429V47.685z M27.661,47.574L26.7,47.65v-5.78l0.961-0.522V47.574z M28.712,47.489
		l-0.606,0.049v-6.434l0.606-0.331V47.489z M40.797,42.009l-2.871,0.607v-9.193l3.193-1.891l0.82,8.104
		C42.096,41.29,41.875,41.708,40.797,42.009z"/>
	
		<linearGradient id="SVGID_9_" gradientUnits="userSpaceOnUse" x1="331.1211" y1="-356.7871" x2="331.1211" y2="-315.1938" gradientTransform="matrix(1 0 0 -1 -267.5996 -293.9004)">
		<stop  offset="0" style="stop-color:#CCCCCC"/>
		<stop  offset="0.2686" style="stop-color:#D9D9D9"/>
		<stop  offset="0.4242" style="stop-color:#F0F0F0"/>
		<stop  offset="0.7394" style="stop-color:#F8F8F8"/>
		<stop  offset="1" style="stop-color:#F8F8F8"/>
	</linearGradient>
	<path fill="url(#SVGID_9_)" d="M85.611,48.602l-4.582-18.864c0,0-0.639-3.114-5.035-4.67c-4.395-1.557-15.29-5.77-31.497-2.656
		c0,0-3.938,0.825-3.114,5.037l2.106,14.641c0,0,0.474,2.482,0,8.434l-0.64,8.059c0,0-0.641,4.305,3.936,4.305
		c4.578,0,35.255-2.107,35.255-2.107s1.462-0.18,1.831-1.555l1.74-7.052C85.611,52.171,85.975,50.704,85.611,48.602z M53.688,52.391
		h-3.158c-1.02,0-1.854-0.697-1.854-1.722c0-1.019,0.836-1.715,1.854-1.715h3.158c1.021,0,1.855,0.696,1.855,1.715
		C55.543,51.691,54.707,52.391,53.688,52.391z M62.169,46.721h-9.063v-0.548h9.063V46.721z M63.118,41.936l-13.083-0.271
		c-2.522-0.008-2.763-2.646-2.763-2.646l-1.24-10.621c-0.279-2.397,2.047-2.523,2.047-2.523l8.704-0.828
		c1.176-0.044,1.611,0.391,1.611,0.391l3.481,3.178c0.825,0.784,0.995,2.046,0.995,2.046l1.791,9.533
		C64.923,41.892,63.118,41.936,63.118,41.936z M64.639,27.031c-0.647,0.679-1.347,0-1.347,0l-1.998-1.849
		C60.085,23.9,61.23,23.9,61.23,23.9l3.947,0.377c1.356,0.302,0.489,1.546,0.489,1.546L64.639,27.031z M67.645,40.089l-1.736-9.418
		c-0.233-1.27,0.521-1.91,0.521-1.91l2.039-2.214c0.649-0.649,2.127,0,2.127,0l7.508,2.605c1.648,0.564,1.606,1.736,1.606,1.736
		l2.257,9.553c0.52,2.219-1.086,1.991-1.086,1.991l-10.763-0.218C68.035,42.215,67.645,40.089,67.645,40.089z M72.676,46.482h7.762
		v0.549h-7.762V46.482z M82.1,51.857h-1.885c-0.843,0-1.529-0.619-1.529-1.463c0-0.84,0.688-1.463,1.529-1.463H82.1
		c0.842,0,1.529,0.623,1.529,1.463C83.629,51.238,82.941,51.857,82.1,51.857z"/>
	
		<linearGradient id="SVGID_10_" gradientUnits="userSpaceOnUse" x1="332.1016" y1="-353.5781" x2="332.1016" y2="-315.7759" gradientTransform="matrix(1 0 0 -1 -267.5996 -293.9004)">
		<stop  offset="0" style="stop-color:#FFFFFF;stop-opacity:0.6"/>
		<stop  offset="1" style="stop-color:#FFFFFF"/>
	</linearGradient>
	<path opacity="0.75" fill="url(#SVGID_10_)" enable-background="new    " d="M85.275,48.609c-0.375-1.75-4.496-18.987-4.496-18.987
		s-0.788-3.089-5.219-4.292c-4.429-1.201-10.92-4.979-28.707-2.78c0,0-3.625,0.497-3.272,3.708l2.288,20.876
		c0,0,0.458,3.755,0,7.419l-0.183,2.932c0,0,0,2.104,1.923,2.193l34.886-1.556c0,0,1.234-0.067,1.75-1.854l1.029-4.017
		C85.275,52.251,85.657,50.361,85.275,48.609z M84.784,51.484c-0.228,2.518-2.195,2.609-2.195,2.609l-33.651,0.778
		c-1.509,0-1.597-1.56-1.597-1.56l-0.005-2.974c0.047-1.237-0.23-3.756-0.23-3.756l-2.378-20.464
		c-0.236-2.026,2.128-2.519,2.128-2.519c15.176-2.655,26.944,1.65,29.917,2.838c2.979,1.19,3.664,3.938,3.664,3.938l3.938,17.03
		C85.014,49.925,84.784,51.484,84.784,51.484z"/>
	
		<linearGradient id="SVGID_11_" gradientUnits="userSpaceOnUse" x1="330.8623" y1="-321.6694" x2="330.8623" y2="-317.5024" gradientTransform="matrix(1 0 0 -1 -267.5996 -293.9004)">
		<stop  offset="0" style="stop-color:#FFFFFF"/>
		<stop  offset="0.7636" style="stop-color:#C9C9C9;stop-opacity:0.8727"/>
		<stop  offset="1" style="stop-color:#000000;stop-opacity:0.4"/>
	</linearGradient>
	<path opacity="0.8" fill="url(#SVGID_11_)" enable-background="new    " d="M65.419,24.06L61.3,23.602c0,0-2.062,0-0.596,1.557
		l2.428,2.244c0,0,0.845,0.824,1.638,0l1.246-1.464C66.016,25.938,67.066,24.427,65.419,24.06z M65.668,25.823l-1.029,1.208
		c-0.647,0.679-1.347,0-1.347,0l-1.998-1.849C60.085,23.9,61.23,23.9,61.23,23.9l3.947,0.377
		C66.535,24.58,65.668,25.823,65.668,25.823z"/>
	
		<linearGradient id="SVGID_12_" gradientUnits="userSpaceOnUse" x1="319.708" y1="-346.6328" x2="319.708" y2="-342.5098" gradientTransform="matrix(1 0 0 -1 -267.5996 -293.9004)">
		<stop  offset="0" style="stop-color:#FFFFFF"/>
		<stop  offset="0.697" style="stop-color:#A5A5A5;stop-opacity:0.7891"/>
		<stop  offset="1" style="stop-color:#000000;stop-opacity:0.4"/>
	</linearGradient>
	<path opacity="0.8" fill="url(#SVGID_12_)" enable-background="new    " d="M53.857,48.609h-3.502c-1.131,0-2.06,0.929-2.06,2.06
		c0,1.136,0.929,2.063,2.06,2.063h3.502c1.136,0,2.062-0.928,2.062-2.063C55.919,49.538,54.993,48.609,53.857,48.609z
		 M53.688,52.391h-3.158c-1.02,0-1.854-0.697-1.854-1.722c0-1.019,0.836-1.715,1.854-1.715h3.158c1.021,0,1.855,0.696,1.855,1.715
		C55.543,51.691,54.707,52.391,53.688,52.391z"/>
	
		<linearGradient id="SVGID_13_" gradientUnits="userSpaceOnUse" x1="322.9502" y1="-336.2734" x2="322.9502" y2="-318.5073" gradientTransform="matrix(1 0 0 -1 -267.5996 -293.9004)">
		<stop  offset="0" style="stop-color:#FFFFFF"/>
		<stop  offset="0.7576" style="stop-color:#C7C7C7;stop-opacity:0.8691"/>
		<stop  offset="1" style="stop-color:#000000;stop-opacity:0.4"/>
	</linearGradient>
	<path opacity="0.8" fill="url(#SVGID_13_)" enable-background="new    " d="M65.145,40.543l-1.883-10.027
		c0,0-0.178-1.329-1.048-2.152l-3.661-3.342c0,0-0.457-0.457-1.695-0.412l-9.155,0.869c0,0-2.444,0.135-2.15,2.656l1.304,11.171
		c0,0,0.25,2.772,2.908,2.783l13.76,0.284C63.521,42.373,65.419,42.327,65.145,40.543z M63.118,41.936l-13.083-0.271
		c-2.522-0.008-2.763-2.646-2.763-2.646l-1.24-10.621c-0.279-2.397,2.047-2.523,2.047-2.523l8.704-0.828
		c1.176-0.044,1.611,0.391,1.611,0.391l3.481,3.178c0.825,0.784,0.995,2.046,0.995,2.046l1.791,9.533
		C64.923,41.892,63.118,41.936,63.118,41.936z"/>
	
		<linearGradient id="SVGID_14_" gradientUnits="userSpaceOnUse" x1="348.7598" y1="-346.084" x2="348.7598" y2="-342.5098" gradientTransform="matrix(1 0 0 -1 -267.5996 -293.9004)">
		<stop  offset="0" style="stop-color:#FFFFFF"/>
		<stop  offset="0.697" style="stop-color:#A5A5A5;stop-opacity:0.7891"/>
		<stop  offset="1" style="stop-color:#000000;stop-opacity:0.4"/>
	</linearGradient>
	<path opacity="0.8" fill="url(#SVGID_14_)" enable-background="new    " d="M82.257,48.609h-2.196
		c-0.983,0-1.785,0.806-1.785,1.785c0,0.983,0.802,1.789,1.785,1.789h2.196c0.979,0,1.785-0.806,1.785-1.789
		C84.042,49.415,83.236,48.609,82.257,48.609z M82.1,51.857h-1.885c-0.843,0-1.529-0.619-1.529-1.463
		c0-0.84,0.688-1.463,1.529-1.463H82.1c0.842,0,1.529,0.623,1.529,1.463C83.629,51.238,82.941,51.857,82.1,51.857z"/>
	
		<linearGradient id="SVGID_15_" gradientUnits="userSpaceOnUse" x1="341.5664" y1="-336.7832" x2="341.5664" y2="-319.7153" gradientTransform="matrix(1 0 0 -1 -267.5996 -293.9004)">
		<stop  offset="0" style="stop-color:#FFFFFF"/>
		<stop  offset="0.7576" style="stop-color:#C7C7C7;stop-opacity:0.8691"/>
		<stop  offset="1" style="stop-color:#000000;stop-opacity:0.4"/>
	</linearGradient>
	<path opacity="0.8" fill="url(#SVGID_15_)" enable-background="new    " d="M82.404,40.777l-2.381-10.079
		c0,0,0.045-1.235-1.694-1.831L70.41,26.12c0,0-1.557-0.687-2.242,0l-2.152,2.334c0,0-0.8,0.673-0.551,2.014l1.832,9.935
		c0,0,0.41,2.243,2.61,2.243l11.354,0.229C81.262,42.876,82.956,43.12,82.404,40.777z M80.881,42.433l-10.763-0.218
		c-2.083,0-2.476-2.126-2.476-2.126l-1.735-9.418c-0.233-1.27,0.522-1.91,0.522-1.91l2.038-2.214c0.649-0.649,2.128,0,2.128,0
		l7.506,2.605c1.649,0.564,1.607,1.736,1.607,1.736l2.257,9.553C82.484,42.661,80.881,42.433,80.881,42.433z"/>
	
		<linearGradient id="SVGID_16_" gradientUnits="userSpaceOnUse" x1="307.5195" y1="-336.9604" x2="307.5195" y2="-324.7134" gradientTransform="matrix(1 0 0 -1 -267.5996 -293.9004)">
		<stop  offset="0" style="stop-color:#FFFFFF"/>
		<stop  offset="1" style="stop-color:#000000;stop-opacity:0.4"/>
	</linearGradient>
	<path opacity="0.6" fill="url(#SVGID_16_)" enable-background="new    " d="M42.208,39.993l-1.006-9.18l-3.618,2.221V43.06
		l3.251-0.688C42.056,42.031,42.385,41.869,42.208,39.993z M40.797,42.009l-2.871,0.607v-9.193l3.193-1.891l0.82,8.104
		C42.096,41.29,41.875,41.708,40.797,42.009z"/>
	<path fill="none" d="M33.189,31.564"/>
	<g>
		<polygon opacity="0.4" enable-background="new    " points="34.411,31.887 34.412,32.226 41.154,26.79 41.154,26.326 		"/>
		<polygon opacity="0.4" enable-background="new    " points="33.189,33.211 33.727,32.779 33.727,32.452 33.189,32.895 		"/>
		<polygon opacity="0.4" enable-background="new    " points="31.747,34.083 31.747,34.324 31.128,34.773 31.128,34.593 
			21.308,42.691 21.308,42.792 32.503,33.766 32.503,33.461 		"/>
	</g>
</g>
<g>
	<path fill-opacity="0.02" d="M26.886,29.15h7.937l7.364-6.391l0.002,0.021c0.959-0.88,2.112-1.127,2.112-1.127
		c3.371-0.647,6.514-0.984,9.438-1.109c-1.324-1.596-3.48-2.985-6.76-2.985h-1.34l-0.222-0.366c0.011-0.132,0.016-0.269,0.016-0.406
		c0-3.408-2.773-6.182-6.182-6.182c-3.41,0-6.182,2.773-6.182,6.182c0,0.137,0.005,0.274,0.014,0.406l-0.22,0.366h-1.34
		c-5.67,0-8.001,4.158-8.445,6.363c-0.037,0.198-0.054,0.396-0.054,0.59v0.773C23.023,27.417,24.755,29.15,26.886,29.15z"/>
</g>
<g>
	<path fill-opacity="0.05" d="M26.886,28.377h8.828l6.473-5.618l0.002,0.021c0.959-0.88,2.112-1.127,2.112-1.127
		c2.993-0.575,5.805-0.901,8.445-1.058c-1.225-1.25-3.081-2.263-5.769-2.263h-1.779l-0.574-0.958
		c0.022-0.196,0.036-0.388,0.036-0.587c0-2.983-2.428-5.409-5.41-5.409s-5.41,2.426-5.41,5.409c0,0.199,0.012,0.391,0.036,0.587
		l-0.574,0.958h-1.78c-5.169,0-7.286,3.746-7.685,5.735c-0.026,0.145-0.042,0.297-0.042,0.445v0.773
		C23.796,26.991,25.18,28.377,26.886,28.377z"/>
</g>
<g>
	<path fill-opacity="0.05" d="M26.886,27.604h9.718l5.583-4.845l0.002,0.021c0.959-0.88,2.112-1.127,2.112-1.127
		c2.601-0.5,5.055-0.802,7.391-0.979c-1.092-0.897-2.623-1.568-4.713-1.568h-2.214l-0.944-1.57c0.045-0.25,0.068-0.497,0.068-0.749
		c0-2.558-2.082-4.637-4.637-4.637c-2.556,0-4.637,2.079-4.637,4.637c0,0.251,0.021,0.498,0.068,0.749l-0.944,1.57h-2.215
		c-4.669,0-6.571,3.338-6.926,5.106c-0.018,0.099-0.027,0.201-0.027,0.3v0.773C24.569,26.564,25.608,27.604,26.886,27.604z"/>
</g>
<g>
	<path fill-opacity="0.1" d="M26.886,26.831h10.609l4.692-4.072l0.002,0.021c0.959-0.88,2.112-1.127,2.112-1.127
		c2.144-0.412,4.199-0.7,6.163-0.889c-0.896-0.528-2.038-0.887-3.486-0.887h-2.654L43,17.671c0.076-0.303,0.114-0.595,0.114-0.885
		c0-2.131-1.735-3.864-3.864-3.864c-2.131,0-3.864,1.732-3.864,3.864c0,0.29,0.036,0.582,0.114,0.885l-1.323,2.206h-2.655
		c-4.168,0-5.856,2.935-6.167,4.484c-0.011,0.05-0.014,0.101-0.014,0.151v0.773C25.342,26.139,26.033,26.831,26.886,26.831z
		 M39.25,16.015c0.426,0,0.772,0.345,0.772,0.772c0,0.427-0.347,0.772-0.772,0.772c-0.428,0-0.773-0.345-0.773-0.772
		C38.477,16.36,38.822,16.015,39.25,16.015z"/>
</g>
<g>
	<path fill-opacity="0.15" d="M26.886,26.059h11.499l3.802-3.299l0.002,0.021c0.959-0.88,2.112-1.127,2.112-1.127
		c1.613-0.31,3.16-0.531,4.672-0.712c-0.57-0.178-1.225-0.291-1.995-0.291c-1.87,0-2.726,0-3.09,0l-1.725-2.872
		c0.108-0.314,0.179-0.642,0.179-0.992c0-1.708-1.385-3.091-3.091-3.091c-1.707,0-3.091,1.383-3.091,3.091
		c0,0.35,0.071,0.678,0.177,0.992l-1.723,2.872c-0.366,0-1.22,0-3.091,0c-4.636,0-5.408,3.862-5.408,3.862v0.773
		C26.114,25.71,26.461,26.059,26.886,26.059z M39.25,15.241c0.854,0,1.546,0.691,1.546,1.545c0,0.852-0.692,1.546-1.546,1.546
		s-1.546-0.694-1.546-1.546C37.704,15.933,38.396,15.241,39.25,15.241z"/>
</g>
<g>
	<g>
		<path fill-opacity="0.02" d="M17.181,52.544v-7.347L30.25,33.338v-1.997l2.414-2.234H34.9v0.013l7.098-6.331L42,22.812
			c0.919-0.865,2.021-1.109,2.021-1.109c2.198-0.434,6.295-0.912,6.295-0.912l-2.443-1.377H18.387c-2.558,0-4.637,2.081-4.637,4.637
			v47.713c0,2.553,2.079,4.637,4.637,4.637h29.582L17.181,52.544z"/>
	</g>
</g>
<g>
	<path fill-opacity="0.05" d="M17.181,52.544v-7.347L30.25,33.338v-1.997l2.414-2.234H34.9v0.013l7.098-6.331L42,22.812
		c0.919-0.865,2.021-1.109,2.021-1.109c7.235-1.428,2.603-1.516,2.603-1.516H18.387c-2.133,0-3.864,1.734-3.864,3.863v47.789
		c0,2.128,1.731,3.865,3.864,3.865h28.685L17.181,52.544z"/>
</g>
<g>
	<path fill-opacity="0.05" d="M17.181,52.509v-7.312L30.25,33.338v-1.997l2.414-2.234H34.9v0.013l7.098-6.331L42,22.812
		c0.919-0.865,2.021-1.109,2.021-1.109c1.67-0.33,3.269-0.562,4.827-0.744h-30.46c-1.707,0-3.091,1.386-3.091,3.091v47.869
		c0,1.701,1.384,3.088,3.091,3.088h27.785L17.181,52.509z"/>
</g>
<g>
	<path fill-opacity="0.1" d="M17.181,52.544v-7.347L30.25,33.338v-1.997l2.414-2.234H34.9v0.013l7.098-6.331L42,22.812
		c0.753-0.709,1.619-0.997,1.911-1.08H18.387c-1.279,0-2.318,1.04-2.318,2.317v47.945c0,1.275,1.04,2.314,2.318,2.314h26.885
		L17.181,52.544"/>
</g>
<linearGradient id="SVGID_17_" gradientUnits="userSpaceOnUse" x1="298.208" y1="-367.5137" x2="298.208" y2="-316.2553" gradientTransform="matrix(1 0 0 -1 -267.5996 -293.9004)">
	<stop  offset="0.0121" style="stop-color:#E0E0E0"/>
	<stop  offset="0.5394" style="stop-color:#E5E5E5"/>
	<stop  offset="1" style="stop-color:#F8F8F8"/>
</linearGradient>
<path fill="url(#SVGID_17_)" d="M17.181,52.544v-1.321v-6.025l13.069-11.86v-1.997l2.414-2.234H34.9v0.013l3.408-3.04H26.886
	c-0.853,0-1.544-0.692-1.544-1.546c0,0,0.002-0.896,0.014-0.946c0.016-0.075,0.145-0.663,0.547-1.394h-7.516
	c-0.851,0-1.546,0.697-1.546,1.545v48.33c0,0.851,0.695,1.545,1.546,1.545h25.987L17.181,52.544z"/>
<g>
	<path fill-opacity="0.02" d="M26.886,28.377h8.828l6.473-5.618l0.002,0.021c0.264-0.242,0.54-0.432,0.805-0.586H24.189
		c-0.219,0.528-0.316,0.935-0.35,1.095c-0.028,0.148-0.043,0.299-0.043,0.45v1.545C23.796,26.991,25.18,28.377,26.886,28.377z"/>
</g>
<g>
	<path fill-opacity="0.05" d="M26.886,27.604h9.718l5.583-4.845l0.002,0.021c0.264-0.242,0.54-0.432,0.805-0.586H25.035
		c-0.298,0.632-0.413,1.121-0.438,1.245c-0.02,0.1-0.028,0.201-0.028,0.3v1.545C24.569,26.564,25.608,27.604,26.886,27.604z"/>
</g>
<g>
	<path fill-opacity="0.1" d="M26.886,26.831h10.609l4.692-4.072l0.002,0.021c0.264-0.242,0.54-0.432,0.805-0.586H25.903
		c-0.402,0.731-0.532,1.319-0.547,1.394c-0.011,0.05-0.014,1.696-0.014,1.696C25.342,26.139,26.033,26.831,26.886,26.831z"/>
</g>
<g>
	<path fill-opacity="0.2" d="M26.886,26.059h11.499l3.802-3.299l0.002,0.021c0.264-0.242,0.54-0.432,0.805-0.586H26.801
		c-0.541,0.822-0.687,1.545-0.687,1.545v1.545C26.114,25.71,26.461,26.059,26.886,26.059z"/>
</g>
<linearGradient id="SVGID_18_" gradientUnits="userSpaceOnUse" x1="305.8145" y1="-319.1855" x2="305.8145" y2="-306.8616" gradientTransform="matrix(1 0 0 -1 -267.5996 -293.9004)">
	<stop  offset="0" style="stop-color:#CCCCCC"/>
	<stop  offset="0.3273" style="stop-color:#D9D9D9"/>
	<stop  offset="0.5394" style="stop-color:#F8F8F8"/>
	<stop  offset="1" style="stop-color:#FFFFFF"/>
</linearGradient>
<path fill="url(#SVGID_18_)" d="M26.886,25.285h12.315l2.797-2.495L42,22.812c0.919-0.865,2.021-1.109,2.021-1.109
	c2.2-0.435,4.294-0.721,6.295-0.904c-0.791-0.531-1.871-0.92-3.34-0.92c-1.87,0-2.726,0-3.09,0l-1.725-2.871
	c0.108-0.314,0.179-0.643,0.179-0.992c0-1.708-1.385-3.092-3.091-3.092c-1.707,0-3.091,1.384-3.091,3.092
	c0,0.349,0.071,0.678,0.177,0.992l-1.723,2.871c-0.366,0-1.22,0-3.091,0c-4.636,0-5.408,3.862-5.408,3.862v0.772
	C26.114,24.938,26.461,25.285,26.886,25.285z M39.25,14.468c0.854,0,1.546,0.692,1.546,1.546c0,0.852-0.692,1.544-1.546,1.544
	s-1.546-0.693-1.546-1.544C37.704,15.161,38.396,14.468,39.25,14.468z"/>
<linearGradient id="SVGID_19_" gradientUnits="userSpaceOnUse" x1="305.6719" y1="-367.3008" x2="305.6719" y2="-306.8839" gradientTransform="matrix(1 0 0 -1 -267.5996 -293.9004)">
	<stop  offset="0" style="stop-color:#CCCCCC"/>
	<stop  offset="0.1818" style="stop-color:#D9D9D9"/>
	<stop  offset="0.8606" style="stop-color:#F8F8F8"/>
</linearGradient>
<path fill="url(#SVGID_19_)" d="M26.886,24.9h12.747l2.366-2.11L42,22.812c0.919-0.865,2.021-1.109,2.021-1.109
	c1.953-0.386,3.825-0.657,5.624-0.842c-0.686-0.354-1.555-0.597-2.667-0.597h-3.09c-0.136,0-0.263-0.07-0.333-0.187l-1.722-2.873
	c-0.058-0.097-0.071-0.214-0.034-0.322c0.104-0.311,0.156-0.593,0.156-0.867c0-1.492-1.213-2.707-2.704-2.707
	c-1.492,0-2.704,1.215-2.704,2.707c0,0.274,0.051,0.556,0.155,0.867c0.037,0.108,0.023,0.226-0.034,0.322l-1.724,2.873
	c-0.069,0.116-0.195,0.187-0.332,0.187H31.52c-4.249,0-5.002,3.409-5.022,3.477v0.772C26.5,24.726,26.674,24.9,26.886,24.9z
	 M39.25,14.081c1.064,0,1.931,0.868,1.931,1.934c0,1.063-0.867,1.931-1.931,1.931s-1.931-0.867-1.931-1.931
	C37.319,14.948,38.186,14.081,39.25,14.081z"/>
<linearGradient id="SVGID_20_" gradientUnits="userSpaceOnUse" x1="306.8496" y1="-311.8462" x2="306.8496" y2="-307.993" gradientTransform="matrix(1 0 0 -1 -267.5996 -293.9004)">
	<stop  offset="0" style="stop-color:#FFFFFF"/>
	<stop  offset="0.4606" style="stop-color:#F8F8F8"/>
	<stop  offset="0.6727" style="stop-color:#D9D9D9"/>
	<stop  offset="1" style="stop-color:#CCCCCC"/>
</linearGradient>
<path fill="url(#SVGID_20_)" d="M39.25,14.081c-1.064,0-1.931,0.868-1.931,1.934c0,1.063,0.867,1.931,1.931,1.931
	s1.931-0.867,1.931-1.931C41.181,14.948,40.314,14.081,39.25,14.081z M39.25,17.559c-0.854,0-1.546-0.693-1.546-1.544
	c0-0.854,0.691-1.546,1.546-1.546c0.854,0,1.546,0.692,1.546,1.546C40.796,16.866,40.104,17.559,39.25,17.559z"/>
</svg>
